<svg width="27" height="27" viewBox="0 0 27 27" fill="none" xmlns="http://www.w3.org/2000/svg">
<path fill-rule="evenodd" clip-rule="evenodd" d="M11.0249 1.22832C11.0251 0.972381 10.9455 0.722775 10.7971 0.514432C10.6487 0.306089 10.439 0.149435 10.1974 0.0663933C9.95578 -0.0166485 9.69428 -0.0219226 9.44951 0.051309C9.20473 0.124541 8.98894 0.272613 8.83232 0.474805L0.258077 11.5198C0.0908127 11.7352 0 12.0004 0 12.2733C0 12.5463 0.0908127 12.8114 0.258077 13.0268L8.83232 24.0719C8.98894 24.274 9.20473 24.4221 9.44951 24.4954C9.69428 24.5686 9.95578 24.5633 10.1974 24.4803C10.439 24.3972 10.6487 24.2406 10.7971 24.0322C10.9455 23.8239 11.0251 23.5743 11.0249 23.3183V18.4217C17.6136 18.5592 20.7787 19.8122 22.3686 21.1744C23.8801 22.4691 24.1569 23.9921 24.4448 25.5875L24.5195 25.9986C24.5745 26.2928 24.7348 26.5567 24.9704 26.7407C25.206 26.9247 25.5006 27.0161 25.7988 26.9977C26.0969 26.9793 26.3781 26.8524 26.5894 26.6408C26.8007 26.4292 26.9275 26.1476 26.946 25.8489C27.1555 22.4765 26.8407 17.5897 24.4632 13.5018C22.1555 9.53417 17.9994 6.48329 11.0249 6.16421V1.22832Z" fill="white"/>
</svg>
