<svg width="43" height="43" viewBox="0 0 43 43" fill="none" xmlns="http://www.w3.org/2000/svg">
<path d="M6.14286 0C4.51367 0 2.95121 0.647192 1.7992 1.7992C0.647192 2.95121 0 4.51367 0 6.14286V36.8571C0 38.4863 0.647192 40.0488 1.7992 41.2008C2.95121 42.3528 4.51367 43 6.14286 43H36.8571C38.4863 43 40.0488 42.3528 41.2008 41.2008C42.3528 40.0488 43 38.4863 43 36.8571V6.14286C43 4.51367 42.3528 2.95121 41.2008 1.7992C40.0488 0.647192 38.4863 0 36.8571 0H6.14286ZM23.0357 10.75V19.9643H32.25C32.6573 19.9643 33.0479 20.1261 33.3359 20.4141C33.6239 20.7021 33.7857 21.0927 33.7857 21.5C33.7857 21.9073 33.6239 22.2979 33.3359 22.5859C33.0479 22.8739 32.6573 23.0357 32.25 23.0357H23.0357V32.25C23.0357 32.6573 22.8739 33.0479 22.5859 33.3359C22.2979 33.6239 21.9073 33.7857 21.5 33.7857C21.0927 33.7857 20.7021 33.6239 20.4141 33.3359C20.1261 33.0479 19.9643 32.6573 19.9643 32.25V23.0357H10.75C10.3427 23.0357 9.95209 22.8739 9.66409 22.5859C9.37608 22.2979 9.21429 21.9073 9.21429 21.5C9.21429 21.0927 9.37608 20.7021 9.66409 20.4141C9.95209 20.1261 10.3427 19.9643 10.75 19.9643H19.9643V10.75C19.9643 10.3427 20.1261 9.95209 20.4141 9.66409C20.7021 9.37608 21.0927 9.21429 21.5 9.21429C21.9073 9.21429 22.2979 9.37608 22.5859 9.66409C22.8739 9.95209 23.0357 10.3427 23.0357 10.75Z" fill="#FF0011"/>
</svg>
