<svg width="46" height="46" viewBox="0 0 46 46" fill="none" xmlns="http://www.w3.org/2000/svg">
<path d="M23 0C10.281 0 0 10.281 0 23C0 35.719 10.281 46 23 46C35.719 46 46 35.719 46 23C46 10.281 35.719 0 23 0ZM32.89 32.89C32.6772 33.1032 32.4245 33.2724 32.1462 33.3878C31.868 33.5032 31.5697 33.5626 31.2685 33.5626C30.9673 33.5626 30.669 33.5032 30.3908 33.3878C30.1125 33.2724 29.8598 33.1032 29.647 32.89L23 26.243L16.353 32.89C15.923 33.32 15.3397 33.5616 14.7315 33.5616C14.1233 33.5616 13.54 33.32 13.11 32.89C12.68 32.4599 12.4384 31.8767 12.4384 31.2685C12.4384 30.9674 12.4977 30.6692 12.6129 30.391C12.7281 30.1127 12.8971 29.8599 13.11 29.647L19.757 23L13.11 16.353C12.68 15.923 12.4384 15.3397 12.4384 14.7315C12.4384 14.1233 12.68 13.54 13.11 13.11C13.54 12.68 14.1233 12.4384 14.7315 12.4384C15.3397 12.4384 15.923 12.68 16.353 13.11L23 19.757L29.647 13.11C29.8599 12.8971 30.1127 12.7281 30.391 12.6129C30.6692 12.4977 30.9674 12.4384 31.2685 12.4384C31.5696 12.4384 31.8678 12.4977 32.146 12.6129C32.4243 12.7281 32.6771 12.8971 32.89 13.11C33.1029 13.3229 33.2719 13.5757 33.3871 13.8539C33.5023 14.1322 33.5616 14.4304 33.5616 14.7315C33.5616 15.0326 33.5023 15.3308 33.3871 15.609C33.2719 15.8873 33.1029 16.1401 32.89 16.353L26.243 23L32.89 29.647C33.764 30.521 33.764 31.993 32.89 32.89Z" fill="white"/>
</svg>
