<svg width="23" height="24" viewBox="0 0 23 24" fill="none" xmlns="http://www.w3.org/2000/svg">
<path d="M11.5212 13.4206C15.0483 13.4206 17.9099 10.4149 17.9099 6.71029C17.9099 3.00565 15.0483 0 11.5212 0C7.99414 0 5.13255 3.00565 5.13255 6.71029C5.13255 10.4149 7.99414 13.4206 11.5212 13.4206ZM17.2001 14.9118H14.7555C13.7706 15.3871 12.6747 15.6574 11.5212 15.6574C10.3677 15.6574 9.27632 15.3871 8.28696 14.9118H5.8424C2.70574 14.9118 0.163574 17.5819 0.163574 20.8765V21.6221C0.163574 22.8569 1.11744 23.8588 2.29313 23.8588H20.7493C21.925 23.8588 22.8789 22.8569 22.8789 21.6221V20.8765C22.8789 17.5819 20.3367 14.9118 17.2001 14.9118Z" fill="#61A836"/>
</svg>
