<svg width="21" height="23" viewBox="0 0 21 23" fill="none" xmlns="http://www.w3.org/2000/svg">
<path d="M19.7983 5.24125L10.5 0L1.20167 5.24125L7.11667 8.56584C7.96833 7.66667 9.17 7.09877 10.5 7.09877C11.83 7.09877 13.0317 7.66667 13.8833 8.56584L19.7983 5.24125ZM8.16667 11.8313C8.16667 10.5298 9.21667 9.46502 10.5 9.46502C11.7833 9.46502 12.8333 10.5298 12.8333 11.8313C12.8333 13.1327 11.7833 14.1975 10.5 14.1975C9.21667 14.1975 8.16667 13.1327 8.16667 11.8313ZM9.33333 23L0 17.7469V7.2644L5.985 10.6363C5.88 11.0149 5.83333 11.4172 5.83333 11.8313C5.83333 14.0319 7.315 15.8894 9.33333 16.41V23ZM11.6667 23V16.41C13.685 15.8894 15.1667 14.0319 15.1667 11.8313C15.1667 11.4172 15.12 11.0149 15.015 10.6363L21 7.2644V17.7469L11.6667 23Z" fill="#EEDD17"/>
</svg>
