<svg width="61" height="65" viewBox="0 0 61 65" fill="none" xmlns="http://www.w3.org/2000/svg">
<path d="M19.3051 62.669C19.3051 63.4024 17.4901 63.769 13.8601 63.769C10.2301 63.769 8.41508 63.4024 8.41508 62.669V35.059H1.81508C1.19174 35.059 0.751745 34.2157 0.495078 32.529C0.385078 31.7224 0.330078 30.8974 0.330078 30.054C0.330078 29.2107 0.385078 28.3857 0.495078 27.579C0.751745 25.8924 1.19174 25.049 1.81508 25.049H25.7401C26.3634 25.049 26.8034 25.8924 27.0601 27.579C27.1701 28.3857 27.2251 29.2107 27.2251 30.054C27.2251 30.8974 27.1701 31.7224 27.0601 32.529C26.8034 34.2157 26.3634 35.059 25.7401 35.059H19.3051V62.669Z" fill="#FF0011"/>
<path d="M29.841 53.649C32.811 55.4457 35.1577 56.344 36.881 56.344C37.981 56.344 38.531 55.959 38.531 55.189C38.531 54.639 37.5777 53.924 35.671 53.044C31.0877 51.174 28.796 48.1124 28.796 43.859C28.796 41.1457 29.786 39.074 31.766 37.644C33.746 36.214 36.111 35.499 38.861 35.499C41.6477 35.499 43.9944 35.7924 45.901 36.379C47.8443 36.9657 48.816 37.7357 48.816 38.689C48.816 39.4957 48.4127 40.559 47.606 41.879C46.836 43.199 46.3044 43.914 46.011 44.024C44.4343 43.144 42.7293 42.704 40.896 42.704C39.906 42.704 39.411 43.0524 39.411 43.749C39.411 44.189 39.5943 44.574 39.961 44.904C40.3643 45.1974 41.0793 45.5824 42.106 46.059C43.1327 46.499 43.976 46.9024 44.636 47.269C45.3327 47.6357 46.1027 48.149 46.946 48.809C48.706 50.2024 49.586 52.0174 49.586 54.254C49.586 57.1874 48.6144 59.5707 46.671 61.404C44.7277 63.2007 41.7944 64.099 37.871 64.099C35.2677 64.099 32.9027 63.659 30.776 62.779C28.6493 61.899 27.586 60.689 27.586 59.149C27.586 58.1224 27.8243 57.0407 28.301 55.904C28.8143 54.7674 29.3277 54.0157 29.841 53.649Z" fill="#FF0011"/>
<path d="M20.3275 5.37577C20.3275 2.3659 22.9276 -0.182179 26.225 0.0102328C39.1442 0.763388 50.4743 4.8755 59.3496 12.8936C61.8683 15.1668 61.3716 18.8803 58.7598 20.777L58.051 21.2937L56.8976 20.0815L56.8773 20.0623C48.3477 11.7748 35.9863 6.90957 22.8579 6.90957H20.3275V5.37577ZM20.3275 9.65556V39.856C20.3275 43.2424 24.4121 45.183 27.2853 43.1572L31.9568 39.8642V39.8697C31.9568 40.5987 32.2629 41.2979 32.8077 41.8134C33.3526 42.3289 34.0915 42.6185 34.862 42.6185C35.6325 42.6185 36.3714 42.3289 36.9163 41.8134C37.4611 41.2979 37.7672 40.5987 37.7672 39.8697V34.3667C37.7701 34.0182 37.9129 33.6838 38.1666 33.4311C38.4203 33.1784 38.7661 33.0264 39.1338 33.0057C39.5015 32.9851 39.8638 33.0975 40.1473 33.3201C40.4308 33.5426 40.6143 33.8588 40.6607 34.2046V35.7439C40.6607 36.4729 40.9668 37.172 41.5116 37.6875C42.0564 38.203 42.7954 38.4926 43.5658 38.4926C44.3363 38.4926 45.0753 38.203 45.6201 37.6875C46.1649 37.172 46.471 36.4729 46.471 35.7439V29.5922C48.8678 27.9292 52.5312 25.2931 55.7385 22.9732L54.7769 21.9589C46.8196 14.2405 35.2309 9.65556 22.855 9.65556H20.3275ZM32.6686 17.1926C32.6684 17.4624 32.612 17.7296 32.5027 17.9788C32.3934 18.228 32.2333 18.4544 32.0315 18.6451C31.8297 18.8358 31.5902 18.9869 31.3267 19.09C31.0631 19.1931 30.7807 19.2461 30.4955 19.2459C30.2104 19.2457 29.928 19.1924 29.6646 19.089C29.4012 18.9856 29.1619 18.8341 28.9604 18.6431C28.7589 18.4522 28.5991 18.2256 28.4901 17.9763C28.3812 17.7269 28.3252 17.4597 28.3254 17.1899C28.3254 16.6449 28.5542 16.1223 28.9614 15.737C29.3687 15.3517 29.9211 15.1352 30.497 15.1352C31.0729 15.1352 31.6253 15.3517 32.0326 15.737C32.4398 16.1223 32.6686 16.6449 32.6686 17.1899V17.1926ZM41.3114 22.6901C41.3114 23.235 41.0827 23.7576 40.6754 24.143C40.2681 24.5283 39.7158 24.7448 39.1398 24.7448C38.5639 24.7448 38.0115 24.5283 37.6043 24.143C37.197 23.7576 36.9682 23.235 36.9682 22.6901C36.9682 22.1452 37.197 21.6225 37.6043 21.2372C38.0115 20.8519 38.5639 20.6354 39.1398 20.6354C39.7158 20.6354 40.2681 20.8519 40.6754 21.2372C41.0827 21.6225 41.3114 22.1452 41.3114 22.6901ZM32.6918 29.5674C32.6918 30.1153 32.4618 30.6407 32.0524 31.0281C31.643 31.4155 31.0876 31.6331 30.5086 31.6331C29.9296 31.6331 29.3743 31.4155 28.9648 31.0281C28.5554 30.6407 28.3254 30.1153 28.3254 29.5674C28.3254 29.0196 28.5554 28.4942 28.9648 28.1068C29.3743 27.7194 29.9296 27.5018 30.5086 27.5018C31.0876 27.5018 31.643 27.7194 32.0524 28.1068C32.4618 28.4942 32.6918 29.0196 32.6918 29.5674Z" fill="#EEDD17" fill-opacity="0.77"/>
</svg>
