<svg width="36" height="36" viewBox="0 0 36 36" fill="none" xmlns="http://www.w3.org/2000/svg">
<path fill-rule="evenodd" clip-rule="evenodd" d="M30.3157 36C31.8233 36 33.2691 35.4311 34.3351 34.4184C35.4011 33.4057 36 32.0322 36 30.6V5.4C36 3.96783 35.4011 2.59432 34.3351 1.58162C33.2691 0.568928 31.8233 0 30.3157 0H18.9472C17.4396 0 15.9938 0.568928 14.9278 1.58162C13.8618 2.59432 13.2629 3.96783 13.2629 5.4V30.6C13.2629 32.0322 13.8618 33.4057 14.9278 34.4184C15.9938 35.4311 17.4396 36 18.9472 36H30.3157ZM10.813 26.4726C10.4577 26.81 9.97581 26.9996 9.47339 26.9996C8.97096 26.9996 8.48911 26.81 8.13379 26.4726L0.554758 19.2726C0.199546 18.9351 0 18.4773 0 18C0 17.5227 0.199546 17.065 0.554758 16.7274L8.13379 9.5274C8.49115 9.19951 8.96977 9.01809 9.46657 9.02219C9.96337 9.02629 10.4386 9.21559 10.7899 9.54933C11.1412 9.88306 11.3405 10.3345 11.3448 10.8065C11.3491 11.2784 11.1581 11.7331 10.813 12.0726L6.4683 16.2H22.7367C23.2392 16.2 23.7212 16.3896 24.0765 16.7272C24.4318 17.0648 24.6315 17.5226 24.6315 18C24.6315 18.4774 24.4318 18.9352 24.0765 19.2728C23.7212 19.6104 23.2392 19.8 22.7367 19.8H6.4683L10.813 23.9274C11.1682 24.2649 11.3677 24.7227 11.3677 25.2C11.3677 25.6773 11.1682 26.135 10.813 26.4726Z" fill="#6C6C6C"/>
</svg>
