<svg width="218" height="64" viewBox="0 0 218 64" fill="none" xmlns="http://www.w3.org/2000/svg">
<path d="M53.5558 44.296C53.5558 44.8827 52.1038 45.176 49.1998 45.176C46.2958 45.176 44.8438 44.8827 44.8438 44.296V22.208H39.5638C39.0651 22.208 38.7131 21.5333 38.5078 20.184C38.4198 19.5387 38.3758 18.8787 38.3758 18.204C38.3758 17.5293 38.4198 16.8693 38.5078 16.224C38.7131 14.8747 39.0651 14.2 39.5638 14.2H58.7038C59.2025 14.2 59.5545 14.8747 59.7598 16.224C59.8478 16.8693 59.8918 17.5293 59.8918 18.204C59.8918 18.8787 59.8478 19.5387 59.7598 20.184C59.5545 21.5333 59.2025 22.208 58.7038 22.208H53.5558V44.296ZM62.5229 42.404C60.7042 40.38 59.7949 37.5787 59.7949 34C59.7949 30.4213 60.7042 27.62 62.5229 25.596C64.3709 23.572 66.8495 22.56 69.9589 22.56C73.0682 22.56 75.5322 23.572 77.3509 25.596C79.1695 27.62 80.0789 30.4213 80.0789 34C80.0789 37.5787 79.1695 40.38 77.3509 42.404C75.5322 44.428 73.0682 45.44 69.9589 45.44C66.8495 45.44 64.3709 44.428 62.5229 42.404ZM69.9589 29.908C68.3162 29.908 67.4949 31.2573 67.4949 33.956C67.4949 36.6547 68.3162 38.004 69.9589 38.004C71.6309 38.004 72.4669 36.6547 72.4669 33.956C72.4669 31.2573 71.6309 29.908 69.9589 29.908ZM103.121 44.78C103.121 44.9853 101.86 45.088 99.3375 45.088C96.8441 45.088 95.5975 44.956 95.5975 44.692V31.888C95.5975 30.4213 95.1135 29.688 94.1455 29.688C93.6468 29.688 92.9868 30.0107 92.1655 30.656V44.736C92.1655 45.0293 90.9041 45.176 88.3815 45.176C85.8881 45.176 84.6415 45.0147 84.6415 44.692V30.304H83.5415C82.5735 30.304 82.0895 29.292 82.0895 27.268C82.0895 26.3587 82.2655 25.4347 82.6175 24.496C83.0868 23.2053 83.8495 22.56 84.9055 22.56C85.9615 22.56 86.9735 22.8387 87.9415 23.396C88.9388 23.9533 89.5401 24.4813 89.7455 24.98C91.5641 23.3667 93.5735 22.56 95.7735 22.56C98.0028 22.56 99.7921 23.2493 101.141 24.628C102.725 23.2493 104.632 22.56 106.861 22.56C111.701 22.56 114.121 25.508 114.121 31.404V44.78C114.121 44.9853 112.86 45.088 110.337 45.088C107.844 45.088 106.597 44.956 106.597 44.692V31.888C106.597 30.4213 106.113 29.688 105.145 29.688C104.617 29.688 103.943 30.0107 103.121 30.656V44.78ZM120.637 29.028C119.816 27.5613 119.405 26.3733 119.405 25.464C119.405 24.5253 119.655 23.924 120.153 23.66C121.825 22.9267 124.113 22.56 127.017 22.56C129.951 22.56 132.019 23.2493 133.221 24.628C134.424 25.9773 135.025 27.9867 135.025 30.656V37.608H136.521C137.02 37.608 137.401 37.9013 137.665 38.488C137.959 39.0747 138.105 39.8813 138.105 40.908C138.105 41.9347 137.841 42.9467 137.313 43.944C136.815 44.9413 136.125 45.44 135.245 45.44C133.661 45.44 132.385 45.0147 131.417 44.164C130.977 43.812 130.64 43.3867 130.405 42.888C129.056 44.5893 126.959 45.44 124.113 45.44C121.972 45.44 120.168 44.6773 118.701 43.152C117.235 41.6267 116.501 39.8227 116.501 37.74C116.501 32.9587 119.361 30.568 125.081 30.568H127.501V30.128C127.501 29.3653 127.369 28.8813 127.105 28.676C126.871 28.4413 126.299 28.324 125.389 28.324C124.275 28.324 122.691 28.5587 120.637 29.028ZM124.157 37.124C124.157 37.7693 124.333 38.268 124.685 38.62C125.037 38.9427 125.477 39.104 126.005 39.104C126.563 39.104 127.061 38.884 127.501 38.444V35.056H126.269C124.861 35.056 124.157 35.7453 124.157 37.124ZM150.716 44.736C150.716 45.088 149.484 45.264 147.02 45.264C144.086 45.1467 142.62 44.956 142.62 44.692V29.116H140.376C139.789 29.116 139.496 28.104 139.496 26.08C139.496 25.552 139.54 24.9067 139.628 24.144C139.745 23.3813 139.965 23 140.288 23H142.62V19.128C142.62 18.5413 143.852 18.248 146.316 18.248C148.809 18.248 150.056 18.4827 150.056 18.952V21.768L150.1 23H153.84C154.338 23 154.588 24.0267 154.588 26.08C154.588 28.1333 154.338 29.16 153.84 29.16H150.716V44.736ZM158.687 42.404C156.868 40.38 155.959 37.5787 155.959 34C155.959 30.4213 156.868 27.62 158.687 25.596C160.535 23.572 163.014 22.56 166.123 22.56C169.232 22.56 171.696 23.572 173.515 25.596C175.334 27.62 176.243 30.4213 176.243 34C176.243 37.5787 175.334 40.38 173.515 42.404C171.696 44.428 169.232 45.44 166.123 45.44C163.014 45.44 160.535 44.428 158.687 42.404ZM166.123 29.908C164.48 29.908 163.659 31.2573 163.659 33.956C163.659 36.6547 164.48 38.004 166.123 38.004C167.795 38.004 168.631 36.6547 168.631 33.956C168.631 31.2573 167.795 29.908 166.123 29.908ZM194.113 37.08C196.489 38.5173 198.367 39.236 199.745 39.236C200.625 39.236 201.065 38.928 201.065 38.312C201.065 37.872 200.303 37.3 198.777 36.596C195.111 35.1 193.277 32.6507 193.277 29.248C193.277 27.0773 194.069 25.42 195.653 24.276C197.237 23.132 199.129 22.56 201.329 22.56C203.559 22.56 205.436 22.7947 206.961 23.264C208.516 23.7333 209.293 24.3493 209.293 25.112C209.293 25.7573 208.971 26.608 208.325 27.664C207.709 28.72 207.284 29.292 207.049 29.38C205.788 28.676 204.424 28.324 202.957 28.324C202.165 28.324 201.769 28.6027 201.769 29.16C201.769 29.512 201.916 29.82 202.209 30.084C202.532 30.3187 203.104 30.6267 203.925 31.008C204.747 31.36 205.421 31.6827 205.949 31.976C206.507 32.2693 207.123 32.68 207.797 33.208C209.205 34.3227 209.909 35.7747 209.909 37.564C209.909 39.9107 209.132 41.8173 207.577 43.284C206.023 44.7213 203.676 45.44 200.537 45.44C198.455 45.44 196.563 45.088 194.861 44.384C193.16 43.68 192.309 42.712 192.309 41.48C192.309 40.6587 192.5 39.7933 192.881 38.884C193.292 37.9747 193.703 37.3733 194.113 37.08Z" fill="white"/>
<path d="M184.15 25.464C183.739 25.5813 183.328 25.64 182.918 25.64C182.507 25.64 182.096 25.5813 181.686 25.464C180.864 25.2293 180.454 24.848 180.454 24.32V15.036C180.454 14.508 181.084 14.1267 182.346 13.892C182.962 13.7747 183.592 13.716 184.238 13.716C184.883 13.716 185.528 13.7747 186.174 13.892C187.435 14.1267 188.066 14.508 188.066 15.036L185.426 24.32C185.426 24.848 185 25.2293 184.15 25.464Z" fill="#EEDD17"/>
<rect y="45.7142" width="218" height="3.04762" rx="1.52381" fill="#EEDD17"/>
<rect x="10.6714" y="38.0952" width="4.57343" height="10.6667" rx="2.28671" fill="#EEDD17"/>
<path d="M11.3644 48.7609C11.4031 47.9089 12.1052 47.238 12.9581 47.238V47.238C13.811 47.238 14.5131 47.9089 14.5518 48.7609L15.1409 61.7156C15.1975 62.9601 14.2039 63.9999 12.9581 63.9999V63.9999C11.7123 63.9999 10.7187 62.9601 10.7753 61.7156L11.3644 48.7609Z" fill="#EEDD17"/>
<path d="M23.5208 48.7586C23.582 47.9018 24.2949 47.238 25.1539 47.238V47.238C26.0129 47.238 26.7258 47.9018 26.787 48.7586L27.2776 55.6238C27.3657 56.8563 26.3896 57.9047 25.1539 57.9047V57.9047C23.9182 57.9047 22.9421 56.8563 23.0302 55.6238L23.5208 48.7586Z" fill="#EEDD17"/>
<path d="M31.1 48.7549C31.1861 47.8938 31.9108 47.238 32.7762 47.238V47.238C33.6417 47.238 34.3663 47.8938 34.4524 48.7549L34.8353 52.5817C34.9572 53.8 34.0005 54.8571 32.7762 54.8571V54.8571C31.5519 54.8571 30.5953 53.8 30.7171 52.5817L31.1 48.7549Z" fill="#EEDD17"/>
<path d="M38.7895 48.7602C38.8369 47.9062 39.5432 47.238 40.3985 47.238V47.238C41.2538 47.238 41.9601 47.9062 42.0076 48.7602L42.5583 58.6691C42.6273 59.9091 41.6404 60.9523 40.3985 60.9523V60.9523C39.1567 60.9523 38.1698 59.9091 38.2387 58.6691L38.7895 48.7602Z" fill="#EEDD17"/>
<path d="M47.9518 48.7609C47.9905 47.9089 48.6926 47.238 49.5455 47.238V47.238C50.3984 47.238 51.1005 47.9089 51.1392 48.7609L51.7283 61.7156C51.7849 62.9601 50.7913 63.9999 49.5455 63.9999V63.9999C48.2997 63.9999 47.3061 62.9601 47.3627 61.7156L47.9518 48.7609Z" fill="#EEDD17"/>
<path d="M57.0411 48.7572C57.1127 47.8985 57.8305 47.238 58.6922 47.238V47.238C59.5539 47.238 60.2718 47.8985 60.3434 48.7572L60.789 54.1021C60.8912 55.3288 59.9232 56.3809 58.6922 56.3809V56.3809C57.4613 56.3809 56.4932 55.3288 56.5955 54.1021L57.0411 48.7572Z" fill="#EEDD17"/>
<path d="M67.7545 48.7602C67.802 47.9062 68.5083 47.238 69.3636 47.238V47.238C70.2189 47.238 70.9252 47.9062 70.9727 48.7602L71.5234 58.6691C71.5923 59.9091 70.6055 60.9523 69.3636 60.9523V60.9523C68.1218 60.9523 67.1349 59.9091 67.2038 58.6691L67.7545 48.7602Z" fill="#EEDD17"/>
<path d="M76.9169 48.7609C76.9556 47.9089 77.6577 47.238 78.5106 47.238V47.238C79.3635 47.238 80.0656 47.9089 80.1043 48.7609L80.6934 61.7156C80.75 62.9601 79.7563 63.9999 78.5106 63.9999V63.9999C77.2648 63.9999 76.2712 62.9601 76.3278 61.7156L76.9169 48.7609Z" fill="#EEDD17"/>
<path d="M84.4818 48.7572C84.5534 47.8985 85.2712 47.238 86.1329 47.238V47.238C86.9946 47.238 87.7124 47.8985 87.784 48.7572L88.2296 54.1021C88.3319 55.3288 87.3639 56.3809 86.1329 56.3809V56.3809C84.9019 56.3809 83.9339 55.3288 84.0362 54.1021L84.4818 48.7572Z" fill="#EEDD17"/>
<path d="M93.6706 48.7602C93.718 47.9062 94.4243 47.238 95.2796 47.238V47.238C96.1349 47.238 96.8412 47.9062 96.8887 48.7602L97.4394 58.6691C97.5084 59.9091 96.5215 60.9523 95.2796 60.9523V60.9523C94.0378 60.9523 93.0509 59.9091 93.1198 58.6691L93.6706 48.7602Z" fill="#EEDD17"/>
<path d="M101.302 48.7606C101.344 47.9077 102.048 47.238 102.902 47.238V47.238C103.756 47.238 104.46 47.9077 104.503 48.7606L105.075 60.1923C105.137 61.4347 104.146 62.4761 102.902 62.4761V62.4761C101.658 62.4761 100.668 61.4347 100.73 60.1923L101.302 48.7606Z" fill="#EEDD17"/>
<path d="M110.373 48.7549C110.459 47.8938 111.183 47.238 112.049 47.238V47.238C112.914 47.238 113.639 47.8938 113.725 48.7549L114.108 52.5817C114.23 53.8 113.273 54.8571 112.049 54.8571V54.8571C110.825 54.8571 109.868 53.8 109.99 52.5817L110.373 48.7549Z" fill="#EEDD17"/>
<path d="M116.514 48.7586C116.575 47.9018 117.288 47.238 118.147 47.238V47.238C119.006 47.238 119.719 47.9018 119.78 48.7586L120.271 55.6238C120.359 56.8563 119.382 57.9047 118.147 57.9047V57.9047C116.911 57.9047 115.935 56.8563 116.023 55.6238L116.514 48.7586Z" fill="#EEDD17"/>
<path d="M124.16 48.7602C124.208 47.9062 124.914 47.238 125.769 47.238V47.238C126.624 47.238 127.331 47.9062 127.378 48.7602L127.929 58.6691C127.998 59.9091 127.011 60.9523 125.769 60.9523V60.9523C124.527 60.9523 123.54 59.9091 123.609 58.6691L124.16 48.7602Z" fill="#EEDD17"/>
<path d="M133.322 48.7609C133.361 47.9089 134.063 47.238 134.916 47.238V47.238C135.769 47.238 136.471 47.9089 136.51 48.7609L137.099 61.7156C137.156 62.9601 136.162 63.9999 134.916 63.9999V63.9999C133.67 63.9999 132.677 62.9601 132.733 61.7156L133.322 48.7609Z" fill="#EEDD17"/>
<path d="M143.936 48.7572C144.008 47.8985 144.726 47.238 145.587 47.238V47.238C146.449 47.238 147.167 47.8985 147.239 48.7572L147.684 54.1021C147.786 55.3288 146.818 56.3809 145.587 56.3809V56.3809C144.357 56.3809 143.388 55.3288 143.491 54.1021L143.936 48.7572Z" fill="#EEDD17"/>
<path d="M151.601 48.7602C151.648 47.9062 152.355 47.238 153.21 47.238V47.238C154.065 47.238 154.771 47.9062 154.819 48.7602L155.37 58.6691C155.439 59.9091 154.452 60.9523 153.21 60.9523V60.9523C151.968 60.9523 150.981 59.9091 151.05 58.6691L151.601 48.7602Z" fill="#EEDD17"/>
<path d="M159.181 48.7572C159.253 47.8985 159.97 47.238 160.832 47.238V47.238C161.694 47.238 162.412 47.8985 162.483 48.7572L162.929 54.1021C163.031 55.3288 162.063 56.3809 160.832 56.3809V56.3809C159.601 56.3809 158.633 55.3288 158.735 54.1021L159.181 48.7572Z" fill="#EEDD17"/>
<path d="M168.378 48.7606C168.421 47.9077 169.125 47.238 169.979 47.238V47.238C170.833 47.238 171.537 47.9077 171.58 48.7606L172.152 60.1923C172.214 61.4347 171.223 62.4761 169.979 62.4761V62.4761C168.735 62.4761 167.744 61.4347 167.807 60.1923L168.378 48.7606Z" fill="#EEDD17"/>
<path d="M179.031 48.7595C179.084 47.9043 179.793 47.238 180.65 47.238V47.238C181.507 47.238 182.216 47.9043 182.27 48.7595L182.794 57.1463C182.872 58.383 181.889 59.4285 180.65 59.4285V59.4285C179.411 59.4285 178.429 58.383 178.506 57.1462L179.031 48.7595Z" fill="#EEDD17"/>
<path d="M186.664 48.7602C186.711 47.9062 187.418 47.238 188.273 47.238V47.238C189.128 47.238 189.834 47.9062 189.882 48.7602L190.433 58.6691C190.502 59.9091 189.515 60.9523 188.273 60.9523V60.9523C187.031 60.9523 186.044 59.9091 186.113 58.6691L186.664 48.7602Z" fill="#EEDD17"/>
<path d="M197.293 48.7572C197.364 47.8985 198.082 47.238 198.944 47.238V47.238C199.806 47.238 200.523 47.8985 200.595 48.7572L201.041 54.1021C201.143 55.3288 200.175 56.3809 198.944 56.3809V56.3809C197.713 56.3809 196.745 55.3288 196.847 54.1021L197.293 48.7572Z" fill="#EEDD17"/>
<path d="M206.471 48.7595C206.525 47.9043 207.234 47.238 208.091 47.238V47.238C208.948 47.238 209.657 47.9043 209.711 48.7595L210.235 57.1463C210.312 58.383 209.33 59.4285 208.091 59.4285V59.4285C206.852 59.4285 205.87 58.383 205.947 57.1462L206.471 48.7595Z" fill="#EEDD17"/>
<path d="M214.074 47.5567C214.138 46.521 214.997 45.7142 216.035 45.7142V45.7142C217.12 45.7142 218 46.594 218 47.6793V55.6894C218 56.9129 217.008 57.9047 215.785 57.9047V57.9047C214.507 57.9047 213.494 56.8265 213.574 55.5512L214.074 47.5567Z" fill="#EEDD17"/>
<path d="M17.5315 37.3343C17.5315 36.0714 18.5553 35.0476 19.8182 35.0476V35.0476C21.0811 35.0476 22.1049 36.0714 22.1049 37.3343V41.9048V46.4752C22.1049 47.7381 21.0811 48.7619 19.8182 48.7619V48.7619C18.5553 48.7619 17.5315 47.7381 17.5315 46.4752V41.9048V37.3343Z" fill="#EEDD17"/>
<path d="M1.52441 13.4266C1.52441 11.0282 3.571 8.99765 6.1664 9.15098C16.3353 9.75115 25.2534 13.028 32.2393 19.4174C34.2218 21.2289 33.8308 24.1881 31.7751 25.6995L31.2171 26.1113L30.3093 25.1453L30.2933 25.13C23.5796 18.5259 13.8497 14.6489 3.51612 14.6489H1.52441V13.4266ZM1.52441 16.8371V40.903C1.52441 43.6016 4.7395 45.148 7.00104 43.5337L10.678 40.9096V40.914C10.678 41.4949 10.919 42.0521 11.3478 42.4628C11.7766 42.8736 12.3583 43.1044 12.9647 43.1044C13.5712 43.1044 14.1528 42.8736 14.5817 42.4628C15.0105 42.0521 15.2514 41.4949 15.2514 40.914V36.5288C15.2537 36.2511 15.3661 35.9846 15.5658 35.7832C15.7656 35.5819 16.0377 35.4607 16.3271 35.4443C16.6166 35.4279 16.9017 35.5174 17.1249 35.6947C17.348 35.8721 17.4924 36.1241 17.529 36.3996V37.6262C17.529 38.2071 17.7699 38.7643 18.1987 39.1751C18.6276 39.5858 19.2092 39.8166 19.8157 39.8166C20.4221 39.8166 21.0038 39.5858 21.4326 39.1751C21.8614 38.7643 22.1024 38.2071 22.1024 37.6262V32.7241C23.9889 31.3989 26.8724 29.2983 29.3969 27.4496L28.64 26.6413C22.3768 20.4907 13.2551 16.8371 3.51384 16.8371H1.52441ZM11.2383 22.8432C11.2381 23.0582 11.1938 23.2711 11.1077 23.4697C11.0217 23.6683 10.8957 23.8487 10.7368 24.0006C10.578 24.1526 10.3895 24.273 10.182 24.3552C9.97461 24.4373 9.75231 24.4796 9.52784 24.4794C9.30337 24.4793 9.08113 24.4368 8.8738 24.3544C8.66648 24.2719 8.47813 24.1512 8.31951 23.9991C8.1609 23.8469 8.03512 23.6664 7.94935 23.4677C7.86359 23.2689 7.81953 23.056 7.81968 22.841C7.81968 22.4067 7.99976 21.9903 8.32032 21.6832C8.64088 21.3762 9.07565 21.2037 9.52898 21.2037C9.98232 21.2037 10.4171 21.3762 10.7376 21.6832C11.0582 21.9903 11.2383 22.4067 11.2383 22.841V22.8432ZM18.0412 27.224C18.0412 27.6582 17.8611 28.0747 17.5406 28.3817C17.22 28.6888 16.7852 28.8613 16.3319 28.8613C15.8786 28.8613 15.4438 28.6888 15.1232 28.3817C14.8027 28.0747 14.6226 27.6582 14.6226 27.224C14.6226 26.7897 14.8027 26.3733 15.1232 26.0662C15.4438 25.7592 15.8786 25.5867 16.3319 25.5867C16.7852 25.5867 17.22 25.7592 17.5406 26.0662C17.8611 26.3733 18.0412 26.7897 18.0412 27.224ZM11.2566 32.7044C11.2566 33.1409 11.0755 33.5596 10.7533 33.8683C10.431 34.177 9.99389 34.3505 9.53813 34.3505C9.08237 34.3505 8.64527 34.177 8.323 33.8683C8.00073 33.5596 7.81968 33.1409 7.81968 32.7044C7.81968 32.2678 8.00073 31.8491 8.323 31.5404C8.64527 31.2317 9.08237 31.0583 9.53813 31.0583C9.99389 31.0583 10.431 31.2317 10.7533 31.5404C11.0755 31.8491 11.2566 32.2678 11.2566 32.7044Z" fill="#EEDD17"/>
</svg>
