<svg width="28" height="16" viewBox="0 0 28 16" fill="none" xmlns="http://www.w3.org/2000/svg">
<path d="M1.3521 15.9059L25.6899 15.9059C26.4365 15.9059 27.042 15.3123 27.042 14.5804V1.32549C27.042 0.593571 26.4365 0 25.6899 0L1.3521 0C0.605488 0 0 0.593571 0 1.32549L0 14.5804C0 15.3123 0.605488 15.9059 1.3521 15.9059ZM25.0139 1.98824V4.63922C23.5202 4.63922 22.3097 3.45249 22.3097 1.98824H25.0139ZM25.0139 11.2667V13.9176H22.3097C22.3097 12.4534 23.5202 11.2667 25.0139 11.2667ZM13.521 3.97647C15.3882 3.97647 16.9013 5.75718 16.9013 7.95294C16.9013 10.1491 15.3878 11.9294 13.521 11.9294C11.6543 11.9294 10.1408 10.1491 10.1408 7.95294C10.1408 5.75636 11.6547 3.97647 13.521 3.97647ZM2.02815 1.98824H4.73236C4.73236 3.45249 3.5218 4.63922 2.02815 4.63922L2.02815 1.98824ZM2.02815 11.2667C3.5218 11.2667 4.73236 12.4534 4.73236 13.9176H2.02815L2.02815 11.2667Z" fill="#EEDD17"/>
</svg>
