<svg width="22" height="23" viewBox="0 0 22 23" fill="none" xmlns="http://www.w3.org/2000/svg">
<path d="M16.5 5.75H22V17.25H16.5V19.55C16.5 19.855 16.6159 20.1475 16.8222 20.3632C17.0285 20.5788 17.3083 20.7 17.6 20.7H19.8V23H17.05C16.445 23 15.4 22.4825 15.4 21.85C15.4 22.4825 14.355 23 13.75 23H11V20.7H13.2C13.4917 20.7 13.7715 20.5788 13.9778 20.3632C14.1841 20.1475 14.3 19.855 14.3 19.55V3.45C14.3 3.145 14.1841 2.85249 13.9778 2.63683C13.7715 2.42116 13.4917 2.3 13.2 2.3H11V0H13.75C14.355 0 15.4 0.5175 15.4 1.15C15.4 0.5175 16.445 0 17.05 0H19.8V2.3H17.6C17.3083 2.3 17.0285 2.42116 16.8222 2.63683C16.6159 2.85249 16.5 3.145 16.5 3.45V5.75ZM0 5.75H12.1V8.05H2.2V14.95H12.1V17.25H0V5.75ZM19.8 14.95V8.05H16.5V14.95H19.8ZM7.15 11.5C7.15 11.0425 6.97616 10.6037 6.66673 10.2802C6.35729 9.95674 5.93761 9.775 5.5 9.775C5.06239 9.775 4.64271 9.95674 4.33327 10.2802C4.02384 10.6037 3.85 11.0425 3.85 11.5C3.85 11.9575 4.02384 12.3963 4.33327 12.7198C4.64271 13.0433 5.06239 13.225 5.5 13.225C5.93761 13.225 6.35729 13.0433 6.66673 12.7198C6.97616 12.3963 7.15 11.9575 7.15 11.5ZM12.1 10.2235C11.429 9.5795 10.384 9.637 9.768 10.35C9.152 11.04 9.207 12.1325 9.9 12.7765C10.505 13.3745 11.473 13.3745 12.1 12.7765V10.2235Z" fill="#EEDD17"/>
</svg>
