<svg width="33" height="36" viewBox="0 0 33 36" fill="none" xmlns="http://www.w3.org/2000/svg">
<path d="M0 4.28382C0 1.88533 2.04659 -0.145174 4.64199 0.00815428C14.8109 0.608324 23.729 3.88517 30.7149 10.2746C32.6974 12.086 32.3064 15.0453 30.2507 16.5566L29.6927 16.9684L28.7849 16.0025L28.7689 15.9871C22.0551 9.38308 12.3253 5.50606 1.99171 5.50606H0V4.28382ZM0 7.69428V31.7602C0 34.4588 3.21509 36.0052 5.47663 34.3909L9.15363 31.7668V31.7712C9.15363 32.3521 9.39455 32.9092 9.82339 33.32C10.2522 33.7308 10.8339 33.9616 11.4403 33.9616C12.0468 33.9616 12.6284 33.7308 13.0573 33.32C13.4861 32.9092 13.727 32.3521 13.727 31.7712V27.386C13.7293 27.1083 13.8417 26.8417 14.0414 26.6404C14.2411 26.439 14.5133 26.3179 14.8027 26.3015C15.0922 26.285 15.3773 26.3746 15.6004 26.5519C15.8236 26.7293 15.968 26.9812 16.0046 27.2568V28.4834C16.0046 29.0643 16.2455 29.6215 16.6743 30.0322C17.1032 30.443 17.6848 30.6738 18.2913 30.6738C18.8977 30.6738 19.4794 30.443 19.9082 30.0322C20.337 29.6215 20.5779 29.0643 20.5779 28.4834V23.5813C22.4645 22.2561 25.348 20.1555 27.8725 18.3068L27.1156 17.4985C20.8523 11.3479 11.7307 7.69428 1.98942 7.69428H0ZM9.71387 13.7004C9.71372 13.9154 9.66936 14.1283 9.58332 14.3269C9.49728 14.5254 9.37125 14.7059 9.21242 14.8578C9.05359 15.0097 8.86507 15.1302 8.65763 15.2124C8.45019 15.2945 8.22789 15.3367 8.00342 15.3366C7.77895 15.3364 7.55671 15.294 7.34939 15.2115C7.14206 15.1291 6.95372 15.0084 6.7951 14.8563C6.63648 14.7041 6.5107 14.5235 6.42494 14.3248C6.33918 14.1261 6.29511 13.9132 6.29526 13.6982C6.29526 13.2639 6.47535 12.8475 6.79591 12.5404C7.11646 12.2333 7.55123 12.0608 8.00457 12.0608C8.4579 12.0608 8.89267 12.2333 9.21323 12.5404C9.53378 12.8475 9.71387 13.2639 9.71387 13.6982V13.7004ZM16.5168 18.0812C16.5168 18.5154 16.3367 18.9319 16.0161 19.2389C15.6956 19.546 15.2608 19.7185 14.8075 19.7185C14.3541 19.7185 13.9194 19.546 13.5988 19.2389C13.2783 18.9319 13.0982 18.5154 13.0982 18.0812C13.0982 17.6469 13.2783 17.2305 13.5988 16.9234C13.9194 16.6163 14.3541 16.4438 14.8075 16.4438C15.2608 16.4438 15.6956 16.6163 16.0161 16.9234C16.3367 17.2305 16.5168 17.6469 16.5168 18.0812ZM9.73216 23.5615C9.73216 23.9981 9.55111 24.4168 9.22884 24.7255C8.90657 25.0342 8.46947 25.2076 8.01371 25.2076C7.55795 25.2076 7.12086 25.0342 6.79859 24.7255C6.47631 24.4168 6.29526 23.9981 6.29526 23.5615C6.29526 23.125 6.47631 22.7063 6.79859 22.3976C7.12086 22.0889 7.55795 21.9155 8.01371 21.9155C8.46947 21.9155 8.90657 22.0889 9.22884 22.3976C9.55111 22.7063 9.73216 23.125 9.73216 23.5615Z" fill="#EEDD17"/>
</svg>
