<svg width="23" height="24" viewBox="0 0 23 24" fill="none" xmlns="http://www.w3.org/2000/svg">
<path d="M6.54793 3.82377C6.12231 3.82377 5.83856 4.27112 5.83856 4.56935V8.29729H4.41981V4.56935C4.41981 4.122 4.13606 3.82377 3.71044 3.82377C3.28482 3.82377 3.00107 4.27112 3.00107 4.56935V8.29729H1.58232V4.56935C1.58232 4.122 1.29857 3.82377 0.872948 3.82377C0.447324 3.82377 0.163574 4.27112 0.163574 4.56935V9.49024C0.163574 10.8323 1.1567 11.8761 2.29169 12.0252V22.4635C2.29169 23.3582 2.85919 23.9546 3.71044 23.9546C4.56169 23.9546 5.12919 23.3582 5.12919 22.4635V12.0252C6.26418 11.8761 7.25731 10.8323 7.25731 9.49024V4.56935C7.25731 4.27112 6.97356 3.82377 6.54793 3.82377ZM9.38543 4.56935V13.5164H10.8042V22.4635C10.8042 23.3582 11.3717 23.9546 12.2229 23.9546C13.0742 23.9546 13.6417 23.3582 13.6417 22.4635V0.0958252C11.2298 0.0958252 9.38543 2.03435 9.38543 4.56935ZM19.3167 3.07818C17.3304 3.07818 15.7698 5.31494 15.7698 7.99906C15.6279 9.78847 16.4792 11.4288 17.8979 12.4726V22.4635C17.8979 23.3582 18.4654 23.9546 19.3167 23.9546C20.1679 23.9546 20.7354 23.3582 20.7354 22.4635V12.4726C22.1541 11.4288 23.0054 9.78847 22.8635 7.99906C22.8635 5.31494 21.3029 3.07818 19.3167 3.07818Z" fill="#EEDD17"/>
</svg>
