<svg width="28" height="28" viewBox="0 0 28 28" fill="none" xmlns="http://www.w3.org/2000/svg">
<path d="M19.385 20.0876L20.0109 20.7134L25.8836 26.5858L26.5857 25.8837L20.7131 20.0114L20.0871 19.3853L20.6326 18.688C22.1325 16.7711 22.9476 14.4074 22.9483 11.9735L19.385 20.0876ZM19.385 20.0876L18.6878 20.6328M19.385 20.0876L18.6878 20.6328M18.6878 20.6328C16.7709 22.1318 14.4076 22.9464 11.9741 22.947L18.6878 20.6328ZM11.9741 1C5.92413 1 1 5.92394 1 11.9735C1 18.023 5.92402 22.9469 11.9739 22.947L11.9741 1ZM11.9741 1C18.024 1 22.9481 5.92381 22.9483 11.9732L11.9741 1Z" fill="#6C6C6C" stroke="#6C6C6C" stroke-width="2"/>
</svg>
