<svg width="130" height="130" viewBox="0 0 130 130" fill="none" xmlns="http://www.w3.org/2000/svg">
<path fill-rule="evenodd" clip-rule="evenodd" d="M65 0C29.1023 0 0 29.1023 0 65C0 100.898 29.1023 130 65 130C100.898 130 130 100.898 130 65C130 29.1023 100.898 0 65 0ZM93.1745 54.0091C93.6933 53.4161 94.0883 52.7253 94.3362 51.9774C94.5841 51.2294 94.6799 50.4395 94.618 49.654C94.5561 48.8685 94.3377 48.1033 93.9757 47.4035C93.6137 46.7036 93.1154 46.0833 92.5101 45.5788C91.9048 45.0744 91.2047 44.6961 90.451 44.4663C89.6974 44.2364 88.9054 44.1596 88.1216 44.2403C87.3378 44.3211 86.5781 44.5578 85.8871 44.9365C85.1962 45.3152 84.5879 45.8282 84.0982 46.4455L58.6891 76.9305L45.5414 63.7768C44.4269 62.7004 42.9342 62.1048 41.3849 62.1183C39.8356 62.1318 38.3535 62.7532 37.2579 63.8488C36.1623 64.9444 35.5408 66.4265 35.5274 67.9758C35.5139 69.5252 36.1095 71.0178 37.1859 72.1323L54.9132 89.8596C55.4938 90.4398 56.1889 90.8927 56.9543 91.1894C57.7196 91.4862 58.5384 91.6202 59.3584 91.5829C60.1784 91.5457 60.9817 91.338 61.717 90.9731C62.4523 90.6082 63.1035 90.0941 63.6291 89.4636L93.1745 54.0091Z" fill="#61A836"/>
</svg>
